{"scene":0,"asset":{"generator":"ImageToStl.com","version":"2.0"},"scenes":[{"name":"Scene","nodes":[0]}],"nodes":[{"name":"Node0","children":[1]},{"name":"Node1","mesh":0}],"materials":[{"name":"x1","pbrMetallicRoughness":{"baseColorFactor":[0.0,0.0,0.0,1.0],"metallicFactor":0.0,"roughnessFactor":1.0},"doubleSided":true}],"meshes":[{"name":"Mesh0","primitives":[{"indices":2,"material":0,"attributes":{"POSITION":0,"NORMAL":1}}]}],"accessors":[{"bufferView":0,"componentType":5126,"count":4992,"type":"VEC3","min":[-0.9962514,-0.052363057,-0.1924151],"max":[1.0016106,0.052466866,0.15998894]},{"bufferView":1,"componentType":5126,"count":4992,"type":"VEC3"},{"bufferView":2,"componentType":5123,"count":30000,"type":"SCALAR"}],"bufferViews":[{"target":34962,"buffer":0,"byteLength":59904,"byteOffset":0},{"target":34962,"buffer":0,"byteLength":59904,"byteOffset":59904},{"target":34963,"buffer":0,"byteLength":60000,"byteOffset":119808}],"buffers":[{"byteLength":179808,"uri":"data:application/octet-stream;base64,"}]}