{"scene":0,"asset":{"generator":"ImageToStl.com","version":"2.0"},"scenes":[{"name":"Scene","nodes":[0]}],"nodes":[{"name":"Node0","children":[1]},{"name":"Node1","mesh":0}],"materials":[{"name":"x1","pbrMetallicRoughness":{"baseColorFactor":[0.0,0.0,0.0,1.0],"metallicFactor":0.0,"roughnessFactor":1.0},"doubleSided":true}],"meshes":[{"name":"Mesh0","primitives":[{"indices":2,"material":0,"attributes":{"POSITION":0,"NORMAL":1}}]}],"accessors":[{"bufferView":0,"componentType":5126,"count":5004,"type":"VEC3","min":[-1.0026667,-0.99732864,-0.14240569],"max":[1.0021071,1.0006702,0.14479187]},{"bufferView":1,"componentType":5126,"count":5004,"type":"VEC3"},{"bufferView":2,"componentType":5123,"count":30000,"type":"SCALAR"}],"bufferViews":[{"target":34962,"buffer":0,"byteLength":60048,"byteOffset":0},{"target":34962,"buffer":0,"byteLength":60048,"byteOffset":60048},{"target":34963,"buffer":0,"byteLength":60000,"byteOffset":120096}],"buffers":[{"byteLength":180096,"uri":"data:application/octet-stream;base64,"}]}