{"scene":0,"asset":{"generator":"ImageToStl.com","version":"2.0"},"scenes":[{"name":"Scene","nodes":[0]}],"nodes":[{"name":"Node0","children":[1]},{"name":"Node1","mesh":0}],"materials":[{"name":"Material_0","pbrMetallicRoughness":{"baseColorFactor":[0.8,0.8,0.8,1.0],"metallicFactor":0.5,"roughnessFactor":0.96},"emissiveFactor":[0.0,0.0,0.0],"doubleSided":true}],"meshes":[{"name":"Mesh0","primitives":[{"indices":3,"material":0,"attributes":{"POSITION":0,"NORMAL":1,"TEXCOORD_0":2}}]}],"accessors":[{"bufferView":0,"componentType":5126,"count":7969,"type":"VEC3","min":[-1.00293,-0.752605,-0.218728],"max":[1.00284,0.749555,0.217947]},{"bufferView":1,"componentType":5126,"count":7969,"type":"VEC3"},{"bufferView":2,"componentType":5126,"count":7969,"type":"VEC2"},{"bufferView":3,"componentType":5123,"count":89991,"type":"SCALAR"}],"bufferViews":[{"target":34962,"buffer":0,"byteLength":95628,"byteOffset":0},{"target":34962,"buffer":0,"byteLength":95628,"byteOffset":95628},{"target":34962,"buffer":0,"byteLength":63752,"byteOffset":191256},{"target":34963,"buffer":0,"byteLength":179982,"byteOffset":255008}],"buffers":[{"byteLength":434992,"uri":"data:application/octet-stream;base64,"}]}